#Comment line ignore any data following # character 
#Hierarchical Translation and Rotation (.htr) file 
[Header]	
#Header keywords are followed by a single value 
FileType HTR		#Single word string
DataType HTRS		#Translation followed by rotation and scale data
FileVersion 1		#integer
NumSegments 84		#integer
NumFrames 2		#integer
DataFrameRate 30		#integer, data frame rate in this file
EulerRotationOrder ZYX
CalibrationUnits mm
RotationUnits Degrees
GlobalAxisofGravity Y
BoneLengthAxis Y
ScaleFactor 1.00
[SegmentNames&Hierarchy]
#CHILD	PARENT
MASTER GLOBAL
root MASTER
chest root
L_mid_tent01 root
R_mid_tent01 root
spine01 root
Bip01_Neck chest
L_humerus chest
R_humerus chest
weapon_bone chest
Bip01_Head Bip01_Neck
eye_left_bone Bip01_Head
eye_right_bone Bip01_Head
L_forearm L_humerus
L_front_hand L_forearm
L_weapon_bone L_forearm
L_front_hand01_01 L_front_hand
L_front_hand02_01 L_front_hand
L_front_hand03_01 L_front_hand
L_front_hand01_02 L_front_hand01_01
L_front_hand02_02 L_front_hand02_01
L_front_hand03_02 L_front_hand03_01
R_forearm R_humerus
R_front_hand R_forearm
R_weapon_bone R_forearm
R_front_hand01_01 R_front_hand
R_front_hand02_01 R_front_hand
R_front_hand03_01 R_front_hand
R_front_hand01_02 R_front_hand01_01
R_front_hand02_02 R_front_hand02_01
R_front_hand03_02 R_front_hand03_01
null_rope01_connect L_mid_tent01
Rope1_Seg01 null_rope01_connect
Rope1_Seg02 Rope1_Seg01
Rope1_Seg03 Rope1_Seg02
Rope1_Seg04 Rope1_Seg03
Rope1_Seg05 Rope1_Seg04
Rope1_Seg06 Rope1_Seg05
Rope1_Seg07 Rope1_Seg06
Rope1_Seg09 Rope1_Seg07
L_mid_hand01 Rope1_Seg09
L_mid_hand02 Rope1_Seg09
L_mid_hand03 Rope1_Seg09
null_rope02_connect R_mid_tent01
Rope2_Seg01 null_rope02_connect
Rope2_Seg02 Rope2_Seg01
Rope2_Seg03 Rope2_Seg02
Rope2_Seg04 Rope2_Seg03
Rope2_Seg05 Rope2_Seg04
Rope2_Seg06 Rope2_Seg05
Rope2_Seg07 Rope2_Seg06
Rope2_Seg09 Rope2_Seg07
R_mid_hand01 Rope2_Seg09
R_mid_hand02 Rope2_Seg09
R_mid_hand03 Rope2_Seg09
spine02 spine01
spine03 spine02
pelvis spine03
null_rope03_connect pelvis
null_rope04_connect pelvis
Rope3_Seg01 null_rope03_connect
Rope3_Seg02 Rope3_Seg01
Rope3_Seg03 Rope3_Seg02
Rope3_Seg04 Rope3_Seg03
Rope3_Seg05 Rope3_Seg04
Rope3_Seg06 Rope3_Seg05
Rope3_Seg07 Rope3_Seg06
Rope3_Seg08 Rope3_Seg07
Rope3_Seg09 Rope3_Seg08
R_rear_hand01 Rope3_Seg09
R_rear_hand02 Rope3_Seg09
R_rear_hand03 Rope3_Seg09
Rope4_Seg01 null_rope04_connect
Rope4_Seg02 Rope4_Seg01
Rope4_Seg03 Rope4_Seg02
Rope4_Seg04 Rope4_Seg03
Rope4_Seg05 Rope4_Seg04
Rope4_Seg06 Rope4_Seg05
Rope4_Seg07 Rope4_Seg06
Rope4_Seg08 Rope4_Seg07
Rope4_Seg09 Rope4_Seg08
L_rear_hand01 Rope4_Seg09
L_rear_hand02 Rope4_Seg09
L_rear_hand03 Rope4_Seg09
[BasePosition]
#SegmentName Tx, Ty, Tz, Rx, Ry, Rz, BoneLength
MASTER 0.000000 0.000000 0.000000 -90.000000 0.000000 0.000000 10.000000 
root 0.000000 0.000000 0.000000 0.000000 0.000000 0.000000 10.000000 
chest 0.000000 0.000000 0.000000 0.000000 0.000000 0.000000 10.000000 
L_mid_tent01 0.000000 0.000000 0.000000 0.000000 0.000000 0.000000 10.000000 
R_mid_tent01 0.000000 0.000000 0.000000 0.000000 0.000000 0.000000 10.000000 
spine01 0.000000 0.000000 0.000000 0.000000 0.000000 0.000000 10.000000 
Bip01_Neck 0.000000 0.000000 0.000000 0.000000 0.000000 0.000000 10.000000 
L_humerus 0.000000 0.000000 0.000000 0.000000 0.000000 0.000000 10.000000 
R_humerus 0.000000 0.000000 0.000000 0.000000 0.000000 0.000000 10.000000 
weapon_bone 0.000000 0.000000 0.000000 0.000000 0.000000 0.000000 10.000000 
Bip01_Head 0.000000 0.000000 0.000000 0.000000 0.000000 0.000000 10.000000 
eye_left_bone 0.000000 0.000000 0.000000 0.000000 0.000000 0.000000 10.000000 
eye_right_bone 0.000000 0.000000 0.000000 0.000000 0.000000 0.000000 10.000000 
L_forearm 0.000000 0.000000 0.000000 0.000000 0.000000 0.000000 10.000000 
L_front_hand 0.000000 0.000000 0.000000 0.000000 0.000000 0.000000 10.000000 
L_weapon_bone 0.000000 0.000000 0.000000 0.000000 0.000000 0.000000 10.000000 
L_front_hand01_01 0.000000 0.000000 0.000000 0.000000 0.000000 0.000000 10.000000 
L_front_hand02_01 0.000000 0.000000 0.000000 0.000000 0.000000 0.000000 10.000000 
L_front_hand03_01 0.000000 0.000000 0.000000 0.000000 0.000000 0.000000 10.000000 
L_front_hand01_02 0.000000 0.000000 0.000000 0.000000 0.000000 0.000000 10.000000 
L_front_hand02_02 0.000000 0.000000 0.000000 0.000000 0.000000 0.000000 10.000000 
L_front_hand03_02 0.000000 0.000000 0.000000 0.000000 0.000000 0.000000 10.000000 
R_forearm 0.000000 0.000000 0.000000 0.000000 0.000000 0.000000 10.000000 
R_front_hand 0.000000 0.000000 0.000000 0.000000 0.000000 0.000000 10.000000 
R_weapon_bone 0.000000 0.000000 0.000000 0.000000 0.000000 0.000000 10.000000 
R_front_hand01_01 0.000000 0.000000 0.000000 0.000000 0.000000 0.000000 10.000000 
R_front_hand02_01 0.000000 0.000000 0.000000 0.000000 0.000000 0.000000 10.000000 
R_front_hand03_01 0.000000 0.000000 0.000000 0.000000 0.000000 0.000000 10.000000 
R_front_hand01_02 0.000000 0.000000 0.000000 0.000000 0.000000 0.000000 10.000000 
R_front_hand02_02 0.000000 0.000000 0.000000 0.000000 0.000000 0.000000 10.000000 
R_front_hand03_02 0.000000 0.000000 0.000000 0.000000 0.000000 0.000000 10.000000 
null_rope01_connect 0.000000 0.000000 0.000000 0.000000 0.000000 0.000000 10.000000 
Rope1_Seg01 0.000000 0.000000 0.000000 0.000000 0.000000 0.000000 10.000000 
Rope1_Seg02 0.000000 0.000000 0.000000 0.000000 0.000000 0.000000 10.000000 
Rope1_Seg03 0.000000 0.000000 0.000000 0.000000 0.000000 0.000000 10.000000 
Rope1_Seg04 0.000000 0.000000 0.000000 0.000000 0.000000 0.000000 10.000000 
Rope1_Seg05 0.000000 0.000000 0.000000 0.000000 0.000000 0.000000 10.000000 
Rope1_Seg06 0.000000 0.000000 0.000000 0.000000 0.000000 0.000000 10.000000 
Rope1_Seg07 0.000000 0.000000 0.000000 0.000000 0.000000 0.000000 10.000000 
Rope1_Seg09 0.000000 0.000000 0.000000 0.000000 0.000000 0.000000 10.000000 
L_mid_hand01 0.000000 0.000000 0.000000 0.000000 0.000000 0.000000 10.000000 
L_mid_hand02 0.000000 0.000000 0.000000 0.000000 0.000000 0.000000 10.000000 
L_mid_hand03 0.000000 0.000000 0.000000 0.000000 0.000000 0.000000 10.000000 
null_rope02_connect 0.000000 0.000000 0.000000 0.000000 0.000000 0.000000 10.000000 
Rope2_Seg01 0.000000 0.000000 0.000000 0.000000 0.000000 0.000000 10.000000 
Rope2_Seg02 0.000000 0.000000 0.000000 0.000000 0.000000 0.000000 10.000000 
Rope2_Seg03 0.000000 0.000000 0.000000 0.000000 0.000000 0.000000 10.000000 
Rope2_Seg04 0.000000 0.000000 0.000000 0.000000 0.000000 0.000000 10.000000 
Rope2_Seg05 0.000000 0.000000 0.000000 0.000000 0.000000 0.000000 10.000000 
Rope2_Seg06 0.000000 0.000000 0.000000 0.000000 0.000000 0.000000 10.000000 
Rope2_Seg07 0.000000 0.000000 0.000000 0.000000 0.000000 0.000000 10.000000 
Rope2_Seg09 0.000000 0.000000 0.000000 0.000000 0.000000 0.000000 10.000000 
R_mid_hand01 0.000000 0.000000 0.000000 0.000000 0.000000 0.000000 10.000000 
R_mid_hand02 0.000000 0.000000 0.000000 0.000000 0.000000 0.000000 10.000000 
R_mid_hand03 0.000000 0.000000 0.000000 0.000000 0.000000 0.000000 10.000000 
spine02 0.000000 0.000000 0.000000 0.000000 0.000000 0.000000 10.000000 
spine03 0.000000 0.000000 0.000000 0.000000 0.000000 0.000000 10.000000 
pelvis 0.000000 0.000000 0.000000 0.000000 0.000000 0.000000 10.000000 
null_rope03_connect 0.000000 0.000000 0.000000 0.000000 0.000000 0.000000 10.000000 
null_rope04_connect 0.000000 0.000000 0.000000 0.000000 0.000000 0.000000 10.000000 
Rope3_Seg01 0.000000 0.000000 0.000000 0.000000 0.000000 0.000000 10.000000 
Rope3_Seg02 0.000000 0.000000 0.000000 0.000000 0.000000 0.000000 10.000000 
Rope3_Seg03 0.000000 0.000000 0.000000 0.000000 0.000000 0.000000 10.000000 
Rope3_Seg04 0.000000 0.000000 0.000000 0.000000 0.000000 0.000000 10.000000 
Rope3_Seg05 0.000000 0.000000 0.000000 0.000000 0.000000 0.000000 10.000000 
Rope3_Seg06 0.000000 0.000000 0.000000 0.000000 0.000000 0.000000 10.000000 
Rope3_Seg07 0.000000 0.000000 0.000000 0.000000 0.000000 0.000000 10.000000 
Rope3_Seg08 0.000000 0.000000 0.000000 0.000000 0.000000 0.000000 10.000000 
Rope3_Seg09 0.000000 0.000000 0.000000 0.000000 0.000000 0.000000 10.000000 
R_rear_hand01 0.000000 0.000000 0.000000 0.000000 0.000000 0.000000 10.000000 
R_rear_hand02 0.000000 0.000000 0.000000 0.000000 0.000000 0.000000 10.000000 
R_rear_hand03 0.000000 0.000000 0.000000 0.000000 0.000000 0.000000 10.000000 
Rope4_Seg01 0.000000 0.000000 0.000000 0.000000 0.000000 0.000000 10.000000 
Rope4_Seg02 0.000000 0.000000 0.000000 0.000000 0.000000 0.000000 10.000000 
Rope4_Seg03 0.000000 0.000000 0.000000 0.000000 0.000000 0.000000 10.000000 
Rope4_Seg04 0.000000 0.000000 0.000000 0.000000 0.000000 0.000000 10.000000 
Rope4_Seg05 0.000000 0.000000 0.000000 0.000000 0.000000 0.000000 10.000000 
Rope4_Seg06 0.000000 0.000000 0.000000 0.000000 0.000000 0.000000 10.000000 
Rope4_Seg07 0.000000 0.000000 0.000000 0.000000 0.000000 0.000000 10.000000 
Rope4_Seg08 0.000000 0.000000 0.000000 0.000000 0.000000 0.000000 10.000000 
Rope4_Seg09 0.000000 0.000000 0.000000 0.000000 0.000000 0.000000 10.000000 
L_rear_hand01 0.000000 0.000000 0.000000 0.000000 0.000000 0.000000 10.000000 
L_rear_hand02 0.000000 0.000000 0.000000 0.000000 0.000000 0.000000 10.000000 
L_rear_hand03 0.000000 0.000000 0.000000 0.000000 0.000000 0.000000 10.000000 
#Beginning of Data. Separated by tabs
#Fr	Tx	Ty	Tz	Rx	Ry	Rz	SF
[MASTER]
32 0.000000 0.000000 0.000000 0.001660 0.001660 0.001660 0.000000
33 0.000000 0.000000 0.000000 0.001660 0.001660 0.001660 0.000000
[root]
32 -16.502245 -199.343781 1093.534668 -85.747307 -61.785316 -93.080688 1111.678223
33 -16.502245 -199.343781 1093.534668 -85.747307 -61.785316 -93.080688 1111.678223
[chest]
32 -84.512650 -34.090519 0.000000 2.256343 -1.288973 -119.947441 91.129311
33 -84.512650 -34.090519 0.000000 2.251995 -1.286610 -119.941704 91.129311
[L_mid_tent01]
32 27.299500 22.177483 -249.917984 -16.934076 1.927831 130.520935 252.380859
33 27.299500 22.177483 -249.917984 -16.951347 1.884931 130.215027 252.380859
[R_mid_tent01]
32 23.228794 24.509907 226.238495 -175.044266 2.023959 119.899002 228.744751
33 23.228794 24.509907 226.238495 -175.033630 2.008717 119.657921 228.744751
[spine01]
32 -0.361383 -0.195265 0.000000 -0.000001 -0.000007 22.052340 0.410763
33 -0.361383 -0.195265 0.000000 -0.000001 -0.000007 22.052340 0.410763
[Bip01_Neck]
32 165.484543 71.581718 0.000119 175.896118 1.177290 24.871183 180.302734
33 165.484543 71.581718 0.000119 175.896118 1.177290 24.871183 180.302734
[L_humerus]
32 -13.983130 -135.272980 -120.471481 -91.668335 0.804969 -167.458282 181.680161
33 -13.983130 -135.272980 -120.471481 -91.668335 0.804969 -167.458282 181.680161
[R_humerus]
32 -13.983309 -135.273102 125.287651 103.000740 1.729733 -169.272232 184.909012
33 -13.983309 -135.273102 125.287651 103.000740 1.729733 -169.272232 184.909012
[weapon_bone]
32 235.964890 -300.705902 0.000000 0.000000 -89.951546 -128.212341 382.234833
33 235.964890 -300.705902 0.000000 0.000000 -89.951546 -128.212341 382.234833
[Bip01_Head]
32 102.819801 23.735456 5.410404 3.150731 3.423701 -20.839088 105.662460
33 102.819801 23.735455 5.410404 3.150731 3.423701 -20.839088 105.662460
[eye_left_bone]
32 -24.626970 125.451866 -64.772606 0.000000 -90.000000 -99.840431 143.318359
33 -24.626970 125.451866 -64.772606 0.000000 -90.000000 -99.840431 143.318359
[eye_right_bone]
32 -24.626970 125.451866 64.327362 0.000000 -89.960434 80.159386 143.117676
33 -24.626970 125.451866 64.327362 0.000000 -89.960434 80.159386 143.117676
[L_forearm]
32 322.776093 0.000000 -0.000119 0.000017 0.002347 -89.149834 322.776093
33 322.776093 0.000000 -0.000119 0.000017 0.002347 -89.149834 322.776093
[L_front_hand]
32 241.149185 -0.042021 -3.300071 -177.730164 -0.050227 -80.188393 241.171753
33 241.149185 -0.042021 -3.300071 -177.730423 -0.050644 -80.178032 241.171753
[L_weapon_bone]
32 156.183838 0.000000 0.000000 0.000014 0.000007 0.000001 156.183838
33 156.183838 0.000000 0.000000 0.000014 0.000007 0.000001 156.183838
[L_front_hand01_01]
32 86.095154 20.947098 -0.655860 0.405585 -0.442306 -4.620490 88.609184
33 86.095154 20.947098 -0.655860 0.405585 -0.442306 -4.620490 88.609184
[L_front_hand02_01]
32 86.935165 -11.437475 24.513514 116.959450 3.630818 1.495453 91.046425
33 86.935165 -11.437475 24.513514 116.959450 3.630818 1.495453 91.046425
[L_front_hand03_01]
32 86.637497 -14.123976 -20.424902 -118.420097 -4.656303 -0.152527 90.126129
33 86.637497 -14.123976 -20.424902 -118.420097 -4.656303 -0.152527 90.126129
[L_front_hand01_02]
32 71.020905 -0.000179 0.000030 0.000004 -0.000005 -8.379269 71.020905
33 71.020905 -0.000179 0.000030 0.000004 -0.000005 -8.379269 71.020905
[L_front_hand02_02]
32 71.020927 -0.000119 0.000060 -0.000005 -0.000004 -8.379259 71.020927
33 71.020927 -0.000119 0.000060 -0.000005 -0.000004 -8.379259 71.020927
[L_front_hand03_02]
32 71.020905 -0.000060 0.000060 0.000015 -0.000040 -8.379267 71.020905
33 71.020905 -0.000060 0.000060 0.000015 -0.000040 -8.379267 71.020905
[R_forearm]
32 322.776428 -0.000060 0.000030 0.210844 -0.039258 -80.752998 322.776428
33 322.776428 -0.000060 0.000030 0.210505 -0.038746 -80.803574 322.776428
[R_front_hand]
32 238.847015 -0.006795 2.210259 -1.673271 -0.426156 -93.025757 238.857239
33 238.847015 -0.006795 2.210259 -1.673599 -0.425629 -93.006279 238.857239
[R_weapon_bone]
32 155.664093 0.002503 -0.000030 0.003487 0.001180 -90.988930 155.664078
33 155.664093 0.002503 -0.000030 0.003487 0.001180 -90.988930 155.664078
[R_front_hand01_01]
32 87.624611 14.231146 22.918642 -116.960205 3.496675 -1.324138 91.683487
33 87.624611 14.231146 22.918642 -116.960213 3.496675 -1.324139 91.683487
[R_front_hand02_01]
32 89.356956 14.367283 -19.491137 118.419647 -4.257089 0.609827 92.579636
33 89.356956 14.367283 -19.491137 118.419647 -4.257089 0.609827 92.579636
[R_front_hand03_01]
32 87.286232 -22.307278 -0.143439 -0.387970 -0.231462 4.232001 90.091743
33 87.286232 -22.307278 -0.143439 -0.387970 -0.231462 4.232001 90.091743
[R_front_hand01_02]
32 71.020905 0.000060 0.000119 -0.000005 -0.000020 8.379271 71.020905
33 71.020905 0.000060 0.000119 -0.000005 -0.000020 8.379271 71.020905
[R_front_hand02_02]
32 71.020844 -0.000030 -0.000119 0.000000 -0.000021 8.379271 71.020836
33 71.020844 -0.000030 -0.000119 0.000000 -0.000021 8.379271 71.020836
[R_front_hand03_02]
32 71.020905 0.000000 0.000030 -0.000001 -0.000020 8.379275 71.020905
33 71.020905 0.000000 0.000030 -0.000001 -0.000020 8.379275 71.020905
[null_rope01_connect]
32 328.732483 0.000000 -0.000238 110.698936 -73.173508 -89.356499 328.732483
33 328.732483 0.000000 -0.000238 110.865318 -73.167633 -89.207771 328.732483
[Rope1_Seg01]
32 0.000000 0.000000 0.000000 75.939430 17.060316 81.712662 0.000000
33 0.000000 0.000000 0.000000 75.880707 17.746904 81.932037 0.000000
[Rope1_Seg02]
32 139.999863 -0.000179 0.000000 62.189148 -10.701500 43.421837 139.999863
33 139.999863 -0.000179 0.000000 61.615028 -11.004626 43.928593 139.999863
[Rope1_Seg03]
32 139.999924 0.000060 -0.000060 59.835407 16.122549 20.042940 139.999924
33 139.999924 0.000060 -0.000060 59.197094 15.605256 19.645731 139.999924
[Rope1_Seg04]
32 139.999924 -0.000060 -0.000119 18.205505 44.830853 -7.099991 139.999924
33 139.999924 -0.000060 -0.000119 19.402548 45.180634 -6.231121 139.999924
[Rope1_Seg05]
32 139.999832 0.000119 -0.000060 -0.229187 17.660694 -9.966302 139.999832
33 139.999832 0.000119 -0.000060 -0.209519 17.935402 -10.103193 139.999832
[Rope1_Seg06]
32 139.999954 0.000119 -0.000060 -0.393094 7.391148 -4.267051 139.999954
33 139.999954 0.000119 -0.000060 -0.399159 7.534673 -4.352614 139.999954
[Rope1_Seg07]
32 139.999985 0.000060 0.000000 -0.104775 1.865373 -1.068472 139.999985
33 139.999985 0.000060 0.000000 -0.107578 1.926328 -1.103211 139.999985
[Rope1_Seg09]
32 121.602913 0.000119 -0.000089 -89.793175 -1.359789 0.847147 121.602913
33 121.602913 0.000119 -0.000089 -89.793175 -1.359789 0.847147 121.602913
[L_mid_hand01]
32 103.859421 1.038730 8.195221 104.352036 0.341479 -0.444583 104.187431
33 103.859421 1.038730 8.195221 104.352036 0.341479 -0.444583 104.187431
[L_mid_hand02]
32 105.572853 -4.139662 -10.864139 -135.608444 3.905687 -3.381056 106.211075
33 105.572853 -4.139662 -10.864139 -135.608444 3.905687 -3.381056 106.211075
[L_mid_hand03]
32 104.641464 17.579376 -3.913581 -18.761518 -0.324361 2.942912 106.179977
33 104.641464 17.579376 -3.913581 -18.761518 -0.324361 2.942912 106.179977
[null_rope02_connect]
32 328.732849 0.000179 -0.000119 122.314087 84.549324 -89.615265 328.732849
33 328.732849 0.000179 -0.000119 122.681137 84.528008 -89.496613 328.732849
[Rope2_Seg01]
32 0.000076 0.000111 0.000153 -5.355010 50.617035 107.273453 0.000204
33 0.000076 0.000111 0.000153 -5.383402 50.702805 107.230934 0.000204
[Rope2_Seg02]
32 139.999741 -0.000060 -0.000119 -18.236076 -58.476288 -42.557289 139.999756
33 139.999741 -0.000060 -0.000119 -18.226067 -58.158146 -41.824806 139.999756
[Rope2_Seg03]
32 140.000107 0.000030 0.000000 -23.225208 -11.702950 -25.662674 140.000107
33 140.000107 0.000030 0.000000 -23.554113 -12.074151 -25.973516 140.000107
[Rope2_Seg04]
32 139.999802 0.000000 -0.000060 -20.925598 -11.903163 -34.208851 139.999802
33 139.999802 0.000000 -0.000060 -20.899815 -11.898763 -33.995205 139.999802
[Rope2_Seg05]
32 139.999985 -0.000060 0.000119 -10.326851 2.244026 -30.137489 139.999985
33 139.999985 -0.000060 0.000119 -10.467668 2.147768 -30.368504 139.999985
[Rope2_Seg06]
32 139.999893 -0.000030 -0.000119 -1.727403 3.253391 -11.911373 139.999893
33 139.999893 -0.000030 -0.000119 -1.753000 3.269681 -11.988721 139.999893
[Rope2_Seg07]
32 139.999893 0.000060 -0.000060 -0.258568 1.342815 -4.463823 139.999893
33 139.999893 0.000060 -0.000060 -0.263518 1.358614 -4.515901 139.999893
[Rope2_Seg09]
32 121.338966 0.000089 -0.000060 33.793236 -1.359788 -0.847141 121.338966
33 121.338966 0.000089 -0.000060 33.793236 -1.359788 -0.847141 121.338966
[R_mid_hand01]
32 104.680779 11.144459 -10.335981 -47.384258 2.963522 5.452604 105.778534
33 104.680779 11.144459 -10.335981 -47.384266 2.963523 5.452605 105.778534
[R_mid_hand02]
32 104.070427 2.443552 8.231699 75.626297 -2.250001 1.111093 104.424065
33 104.070427 2.443552 8.231699 75.626297 -2.250001 1.111093 104.424065
[R_mid_hand03]
32 106.028137 -11.221827 -5.996406 -164.381912 2.495983 -6.140520 106.788818
33 106.028137 -11.221827 -5.996406 -164.381912 2.495983 -6.140520 106.788818
[spine02]
32 129.756927 0.001550 0.000119 -3.644432 -2.816441 49.354382 129.756927
33 129.756927 0.001550 0.000119 -3.635890 -2.820148 49.231754 129.756927
[spine03]
32 79.115631 0.000000 -0.000119 5.763597 8.402752 54.372719 79.115631
33 79.115631 0.000000 -0.000119 5.748378 8.386586 54.275078 79.115631
[pelvis]
32 169.435242 0.051022 0.000000 -7.620464 -2.919491 14.695189 169.435257
33 169.435242 0.051022 0.000000 -7.596755 -2.914927 14.645507 169.435257
[null_rope03_connect]
32 -1.257226 -2.466202 137.391083 145.866211 -84.214500 -134.128220 137.418976
33 -1.257226 -2.466202 137.391083 146.068436 -84.227654 -134.025955 137.418976
[null_rope04_connect]
32 -1.259640 -2.480268 -137.844437 145.866211 -84.214500 -134.128220 137.872513
33 -1.259640 -2.480268 -137.844437 146.068436 -84.227654 -134.025955 137.872513
[Rope3_Seg01]
32 0.000010 0.000038 -0.000114 -169.059036 73.582573 -105.321815 0.000121
33 0.000010 0.000038 -0.000114 -169.274628 73.716705 -105.482895 0.000121
[Rope3_Seg02]
32 139.999924 -0.000119 0.000060 -11.069302 -19.799187 11.800973 139.999924
33 139.999924 -0.000119 0.000060 -10.987967 -19.704205 11.709373 139.999924
[Rope3_Seg03]
32 139.999924 -0.000119 0.000119 -20.914623 -46.356297 23.722010 139.999924
33 139.999924 -0.000119 0.000119 -20.806221 -46.215698 23.590483 139.999924
[Rope3_Seg04]
32 139.999924 0.000119 0.000000 -0.437312 -23.116474 4.359435 139.999924
33 139.999924 0.000119 0.000000 -0.458435 -23.188179 4.383127 139.999924
[Rope3_Seg05]
32 139.999924 -0.000238 0.000060 8.967102 -62.209351 16.442881 139.999924
33 139.999924 -0.000238 0.000060 8.972302 -62.001629 16.285006 139.999924
[Rope3_Seg06]
32 139.999893 -0.000119 -0.000060 11.513479 -40.854912 26.644403 139.999893
33 139.999893 -0.000119 -0.000060 11.521238 -41.108006 26.743113 139.999893
[Rope3_Seg07]
32 139.999771 0.000060 -0.000119 2.904366 -5.081603 5.917999 139.999771
33 139.999771 0.000060 -0.000119 2.910559 -5.094699 5.931479 139.999771
[Rope3_Seg08]
32 139.999985 -0.000060 0.000000 1.463748 -1.925169 2.500131 139.999985
33 139.999985 -0.000060 0.000000 1.466959 -1.931273 2.507423 139.999985
[Rope3_Seg09]
32 90.185997 -0.000179 -0.000060 89.793228 -1.359877 -0.847183 90.185997
33 90.185997 -0.000179 -0.000060 89.793228 -1.359877 -0.847183 90.185997
[R_rear_hand01]
32 103.366196 -6.073594 -10.757982 -156.049316 6.070419 -2.795869 104.101845
33 103.366196 -6.073594 -10.757982 -156.049316 6.070419 -2.795869 104.101845
[R_rear_hand02]
32 100.509819 12.039542 -7.992327 -38.708435 1.958051 5.461186 101.543350
33 100.509819 12.039542 -7.992327 -38.708424 1.958050 5.461185 101.543350
[R_rear_hand03]
32 101.539970 5.215704 5.435467 84.307625 -2.361032 4.099037 101.819031
33 101.539970 5.215704 5.435467 84.307625 -2.361032 4.099037 101.819031
[Rope4_Seg01]
32 -0.000005 0.000029 -0.000200 83.792801 77.029320 -77.242523 0.000202
33 -0.000005 0.000027 -0.000201 83.855728 77.134445 -77.217163 0.000203
[Rope4_Seg02]
32 139.999985 0.000060 0.000119 5.101157 5.822380 -14.881716 139.999985
33 139.999985 0.000060 0.000119 5.070039 5.779439 -14.806409 139.999985
[Rope4_Seg03]
32 139.999924 0.000000 -0.000238 4.785316 11.759879 -49.410923 139.999924
33 139.999924 0.000000 -0.000238 4.800467 11.712042 -49.162560 139.999924
[Rope4_Seg04]
32 139.999985 0.000000 0.000119 -2.969776 3.039308 -36.051044 139.999985
33 139.999985 0.000000 0.000119 -2.961492 3.063092 -36.186867 139.999985
[Rope4_Seg05]
32 139.999802 -0.000060 -0.000119 -9.440236 6.358593 -31.887695 139.999802
33 139.999802 -0.000060 -0.000119 -9.366478 6.321768 -31.741552 139.999802
[Rope4_Seg06]
32 139.999924 0.000000 0.000060 -22.016829 14.834527 -47.901989 139.999924
33 139.999924 0.000000 0.000060 -22.048288 14.806769 -48.006325 139.999924
[Rope4_Seg07]
32 139.999802 0.000000 0.000000 -5.624250 9.822212 -14.572193 139.999802
33 139.999802 0.000000 0.000000 -5.665645 9.866399 -14.658805 139.999802
[Rope4_Seg08]
32 139.999924 0.000000 0.000119 -2.383103 2.498745 -3.100583 139.999924
33 139.999924 0.000000 0.000119 -2.390020 2.515929 -3.122886 139.999924
[Rope4_Seg09]
32 90.185791 0.000060 0.000060 -135.617828 2.228885 0.850567 90.185791
33 90.185791 0.000060 0.000060 -135.617828 2.228885 0.850567 90.185791
[L_rear_hand01]
32 101.696655 -8.392275 -7.654577 -38.746338 0.246096 177.290207 102.329041
33 101.696655 -8.392275 -7.654577 -38.746338 0.246096 177.290207 102.329041
[L_rear_hand02]
32 102.726799 -1.568258 5.773216 84.314880 -1.139137 176.250763 102.900848
33 102.726799 -1.568258 5.773216 84.314880 -1.139137 176.250763 102.900848
[L_rear_hand03]
32 104.552910 9.721220 -10.420293 -155.747955 -4.630845 179.564758 105.519653
33 104.552910 9.721220 -10.420293 -155.747955 -4.630845 179.564758 105.519653
